<svg xmlns="http://www.w3.org/2000/svg" width="680" height="400" viewBox="0 0 680 400" font-family="Pretendard, 'Noto Sans KR', 'Malgun Gothic', sans-serif">
<rect width="680" height="400" fill="#FFFFFF"/>
<defs><marker id="arrow" viewBox="0 0 10 10" refX="8" refY="5" markerWidth="6" markerHeight="6" orient="auto-start-reverse"><path d="M2 1L8 5L2 9" fill="none" stroke="#5F5E5A" stroke-width="1.5" stroke-linecap="round" stroke-linejoin="round"/></marker></defs>

<polygon points="240,165 60,115 60,310 240,310" fill="#D85A30" opacity="0.13"/>
<polyline points="60,115 240,165" fill="none" stroke="#D85A30" stroke-width="1" stroke-dasharray="4 4"/>

<line x1="40" y1="310" x2="640" y2="310" stroke="#5F5E5A" stroke-width="1"/>
<line x1="540" y1="248" x2="240" y2="165" stroke="#5F5E5A" stroke-width="1" stroke-dasharray="5 4"/>

<circle cx="95" cy="266" r="9" fill="#FAECE7" stroke="#993C1D" stroke-width="0.5"/>
<path d="M95 275V296M95 282L84 291M95 282L106 291M95 296L86 309M95 296L104 309" fill="none" stroke="#993C1D" stroke-width="2" stroke-linecap="round"/>

<rect x="240" y="165" width="180" height="130" rx="6" fill="#F1EFE8" stroke="#5F5E5A" stroke-width="0.5"/>
<circle cx="275" cy="298" r="13" fill="#F1EFE8" stroke="#5F5E5A" stroke-width="0.5"/>
<circle cx="390" cy="298" r="13" fill="#F1EFE8" stroke="#5F5E5A" stroke-width="0.5"/>
<text x="330" y="232" text-anchor="middle" dominant-baseline="central" font-size="14" font-weight="500" fill="#444441">대형 화물차</text>

<rect x="500" y="255" width="110" height="40" rx="6" fill="#E6F1FB" stroke="#185FA5" stroke-width="0.5"/>
<rect x="518" y="234" width="62" height="24" rx="5" fill="#E6F1FB" stroke="#185FA5" stroke-width="0.5"/>
<circle cx="525" cy="298" r="12" fill="#E6F1FB" stroke="#185FA5" stroke-width="0.5"/>
<circle cx="590" cy="298" r="12" fill="#E6F1FB" stroke="#185FA5" stroke-width="0.5"/>
<circle cx="540" cy="248" r="3.5" fill="#185FA5"/>

<text x="470" y="203" text-anchor="middle" font-size="12" fill="#5F5E5A">운전자 시선</text>
<text x="165" y="222" text-anchor="middle" font-size="12" fill="#993C1D">보이지 않는 영역</text>
<text x="95" y="340" text-anchor="middle" font-size="12" fill="#5F5E5A">보행자</text>
<text x="555" y="340" text-anchor="middle" font-size="12" fill="#5F5E5A">후방 차량</text>

<line x1="424" y1="322" x2="496" y2="322" stroke="#5F5E5A" stroke-width="1" marker-start="url(#arrow)" marker-end="url(#arrow)"/>
<text x="460" y="340" text-anchor="middle" font-size="12" fill="#5F5E5A">안전거리</text>

<text x="340" y="378" text-anchor="middle" font-size="14" fill="#2C2C2A">안전거리를 지켜도, 화물차 앞쪽은 시야에서 완전히 사라진다</text>
</svg>
